# xmcd
#
# Track frame offsets: 
#        150
#        45757
#        120619
#        138501
#        151014
#        174686
#
# Disc length: 2830 seconds
#
# Revision: 0
# Processed by: cddbd v1.5.2PL0 Copyright (c) Steve Scherf et al.
# Submitted via: ExactAudioCopy v0.99pb5
#
DISCID=410b0c06
DTITLE=Eric Clapton  - Flawless - Jazz A Vienne 7-5-97 (MVR-385) (Disc
DTITLE=2)
DYEAR=1900
DGENRE=
TTITLE0=Tango
TTITLE1=Put It Where You Want It
TTITLE2=Jerry Roll
TTITLE3=In A Sentimental Mood
TTITLE4=Layla
TTITLE5=Everyday I Have The Blues
EXTD=
EXTT0=
EXTT1=
EXTT2=
EXTT3=
EXTT4=
EXTT5=
PLAYORDER=
